{
    "asset" : {
        "generator" : "Khronos glTF Blender I/O v1.3.48",
        "version" : "2.0"
    },
    "scene" : 0,
    "scenes" : [
        {
            "name" : "Scene",
            "nodes" : [
                0,
                1
            ]
        }
    ],
    "nodes" : [
        {
            "mesh" : 0,
            "name" : "train"
        },
        {
            "mesh" : 1,
            "name" : "Chair",
            "scale" : [
                0.34290778636932373,
                0.34290778636932373,
                0.34290778636932373
            ],
            "translation" : [
                0,
                0.6021021008491516,
                0
            ]
        }
    ],
    "materials" : [
        {
            "doubleSided" : true,
            "emissiveFactor" : [
                0,
                0,
                0
            ],
            "name" : "Material",
            "pbrMetallicRoughness" : {
                "baseColorFactor" : [
                    0.19667164981365204,
                    0.8000000715255737,
                    0.07892968505620956,
                    1
                ],
                "metallicFactor" : 0,
                "roughnessFactor" : 0.4000000059604645
            }
        }
    ],
    "meshes" : [
        {
            "name" : "Cube",
            "primitives" : [
                {
                    "attributes" : {
                        "POSITION" : 0,
                        "NORMAL" : 1,
                        "TEXCOORD_0" : 2
                    },
                    "indices" : 3,
                    "material" : 0
                }
            ]
        },
        {
            "name" : "Cube.001",
            "primitives" : [
                {
                    "attributes" : {
                        "POSITION" : 4,
                        "NORMAL" : 5,
                        "TEXCOORD_0" : 6
                    },
                    "indices" : 7
                }
            ]
        }
    ],
    "accessors" : [
        {
            "bufferView" : 0,
            "componentType" : 5126,
            "count" : 124,
            "max" : [
                3.534785747528076,
                3.2687549591064453,
                9.32619857788086
            ],
            "min" : [
                -3.534785747528076,
                0,
                -9.32619857788086
            ],
            "type" : "VEC3"
        },
        {
            "bufferView" : 1,
            "componentType" : 5126,
            "count" : 124,
            "type" : "VEC3"
        },
        {
            "bufferView" : 2,
            "componentType" : 5126,
            "count" : 124,
            "type" : "VEC2"
        },
        {
            "bufferView" : 3,
            "componentType" : 5123,
            "count" : 228,
            "type" : "SCALAR"
        },
        {
            "bufferView" : 4,
            "componentType" : 5126,
            "count" : 15360,
            "max" : [
                1.0000001192092896,
                4.5175461769104,
                1.0000001192092896
            ],
            "min" : [
                -1.0000001192092896,
                0,
                -1.564769983291626
            ],
            "type" : "VEC3"
        },
        {
            "bufferView" : 5,
            "componentType" : 5126,
            "count" : 15360,
            "type" : "VEC3"
        },
        {
            "bufferView" : 6,
            "componentType" : 5126,
            "count" : 15360,
            "type" : "VEC2"
        },
        {
            "bufferView" : 7,
            "componentType" : 5123,
            "count" : 23040,
            "type" : "SCALAR"
        }
    ],
    "bufferViews" : [
        {
            "buffer" : 0,
            "byteLength" : 1488,
            "byteOffset" : 0
        },
        {
            "buffer" : 0,
            "byteLength" : 1488,
            "byteOffset" : 1488
        },
        {
            "buffer" : 0,
            "byteLength" : 992,
            "byteOffset" : 2976
        },
        {
            "buffer" : 0,
            "byteLength" : 456,
            "byteOffset" : 3968
        },
        {
            "buffer" : 0,
            "byteLength" : 184320,
            "byteOffset" : 4424
        },
        {
            "buffer" : 0,
            "byteLength" : 184320,
            "byteOffset" : 188744
        },
        {
            "buffer" : 0,
            "byteLength" : 122880,
            "byteOffset" : 373064
        },
        {
            "buffer" : 0,
            "byteLength" : 46080,
            "byteOffset" : 495944
        }
    ],
    "buffers" : [
        {
            "byteLength" : 542024,
            "uri" : "data:application/octet-stream;base64,"
        }
    ]
}
